<mxfile host="app.diagrams.net" modified="2024-05-15T06:20:21.090Z" agent="Mozilla/5.0 (Windows NT 10.0; Win64; x64) AppleWebKit/537.36 (KHTML, like Gecko) Chrome/124.0.0.0 Safari/537.36" etag="RlL1UN1ZVdsjC5jNUkGH" version="24.2.5" type="device">
  <diagram id="C5RBs43oDa-KdzZeNtuy" name="Page-1">
    <mxGraphModel dx="3497" dy="796" grid="1" gridSize="10" guides="1" tooltips="1" connect="1" arrows="1" fold="1" page="1" pageScale="1" pageWidth="827" pageHeight="1169" math="0" shadow="0">
      <root>
        <mxCell id="WIyWlLk6GJQsqaUBKTNV-0" />
        <mxCell id="WIyWlLk6GJQsqaUBKTNV-1" parent="WIyWlLk6GJQsqaUBKTNV-0" />
        <mxCell id="Iu9OsLd2DkIirDojUxNY-220" style="edgeStyle=orthogonalEdgeStyle;rounded=0;orthogonalLoop=1;jettySize=auto;html=1;exitX=0.5;exitY=1;exitDx=0;exitDy=0;entryX=0.5;entryY=0;entryDx=0;entryDy=0;" parent="WIyWlLk6GJQsqaUBKTNV-1" source="Iu9OsLd2DkIirDojUxNY-207" target="Iu9OsLd2DkIirDojUxNY-213" edge="1">
          <mxGeometry relative="1" as="geometry" />
        </mxCell>
        <mxCell id="Iu9OsLd2DkIirDojUxNY-207" value="1" style="ellipse;whiteSpace=wrap;html=1;aspect=fixed;" parent="WIyWlLk6GJQsqaUBKTNV-1" vertex="1">
          <mxGeometry x="-1240" y="400" width="40" height="40" as="geometry" />
        </mxCell>
        <mxCell id="Iu9OsLd2DkIirDojUxNY-221" style="edgeStyle=orthogonalEdgeStyle;rounded=0;orthogonalLoop=1;jettySize=auto;html=1;exitX=0.5;exitY=1;exitDx=0;exitDy=0;entryX=0.5;entryY=0;entryDx=0;entryDy=0;" parent="WIyWlLk6GJQsqaUBKTNV-1" source="Iu9OsLd2DkIirDojUxNY-213" target="Iu9OsLd2DkIirDojUxNY-214" edge="1">
          <mxGeometry relative="1" as="geometry" />
        </mxCell>
        <mxCell id="Iu9OsLd2DkIirDojUxNY-213" value="2" style="ellipse;whiteSpace=wrap;html=1;aspect=fixed;" parent="WIyWlLk6GJQsqaUBKTNV-1" vertex="1">
          <mxGeometry x="-1240" y="460" width="40" height="40" as="geometry" />
        </mxCell>
        <mxCell id="Iu9OsLd2DkIirDojUxNY-222" style="edgeStyle=orthogonalEdgeStyle;rounded=0;orthogonalLoop=1;jettySize=auto;html=1;exitX=0.5;exitY=1;exitDx=0;exitDy=0;entryX=0.5;entryY=0;entryDx=0;entryDy=0;" parent="WIyWlLk6GJQsqaUBKTNV-1" source="Iu9OsLd2DkIirDojUxNY-214" target="Iu9OsLd2DkIirDojUxNY-215" edge="1">
          <mxGeometry relative="1" as="geometry" />
        </mxCell>
        <mxCell id="Iu9OsLd2DkIirDojUxNY-214" value="3" style="ellipse;whiteSpace=wrap;html=1;aspect=fixed;" parent="WIyWlLk6GJQsqaUBKTNV-1" vertex="1">
          <mxGeometry x="-1240" y="520" width="40" height="40" as="geometry" />
        </mxCell>
        <mxCell id="Iu9OsLd2DkIirDojUxNY-223" style="edgeStyle=orthogonalEdgeStyle;rounded=0;orthogonalLoop=1;jettySize=auto;html=1;entryX=0.5;entryY=0;entryDx=0;entryDy=0;" parent="WIyWlLk6GJQsqaUBKTNV-1" source="Iu9OsLd2DkIirDojUxNY-215" target="Iu9OsLd2DkIirDojUxNY-216" edge="1">
          <mxGeometry relative="1" as="geometry">
            <Array as="points">
              <mxPoint x="-1180" y="600" />
            </Array>
          </mxGeometry>
        </mxCell>
        <mxCell id="Iu9OsLd2DkIirDojUxNY-239" style="edgeStyle=orthogonalEdgeStyle;rounded=0;orthogonalLoop=1;jettySize=auto;html=1;entryX=0;entryY=0.5;entryDx=0;entryDy=0;" parent="WIyWlLk6GJQsqaUBKTNV-1" source="Iu9OsLd2DkIirDojUxNY-215" target="Iu9OsLd2DkIirDojUxNY-238" edge="1">
          <mxGeometry relative="1" as="geometry">
            <Array as="points">
              <mxPoint x="-1290" y="600" />
              <mxPoint x="-1290" y="1040" />
            </Array>
          </mxGeometry>
        </mxCell>
        <mxCell id="Iu9OsLd2DkIirDojUxNY-215" value="4" style="ellipse;whiteSpace=wrap;html=1;aspect=fixed;fillColor=#FF7B08;" parent="WIyWlLk6GJQsqaUBKTNV-1" vertex="1">
          <mxGeometry x="-1240" y="580" width="40" height="40" as="geometry" />
        </mxCell>
        <mxCell id="Iu9OsLd2DkIirDojUxNY-224" style="edgeStyle=orthogonalEdgeStyle;rounded=0;orthogonalLoop=1;jettySize=auto;html=1;entryX=0.5;entryY=0;entryDx=0;entryDy=0;" parent="WIyWlLk6GJQsqaUBKTNV-1" source="Iu9OsLd2DkIirDojUxNY-216" target="Iu9OsLd2DkIirDojUxNY-217" edge="1">
          <mxGeometry relative="1" as="geometry">
            <Array as="points">
              <mxPoint x="-1180" y="680" />
              <mxPoint x="-1180" y="680" />
            </Array>
          </mxGeometry>
        </mxCell>
        <mxCell id="Iu9OsLd2DkIirDojUxNY-216" value="5" style="ellipse;whiteSpace=wrap;html=1;aspect=fixed;" parent="WIyWlLk6GJQsqaUBKTNV-1" vertex="1">
          <mxGeometry x="-1200" y="630" width="40" height="40" as="geometry" />
        </mxCell>
        <mxCell id="Iu9OsLd2DkIirDojUxNY-225" style="edgeStyle=orthogonalEdgeStyle;rounded=0;orthogonalLoop=1;jettySize=auto;html=1;entryX=0.5;entryY=0;entryDx=0;entryDy=0;" parent="WIyWlLk6GJQsqaUBKTNV-1" source="Iu9OsLd2DkIirDojUxNY-217" target="Iu9OsLd2DkIirDojUxNY-218" edge="1">
          <mxGeometry relative="1" as="geometry">
            <Array as="points">
              <mxPoint x="-1090" y="720" />
            </Array>
          </mxGeometry>
        </mxCell>
        <mxCell id="Iu9OsLd2DkIirDojUxNY-231" style="edgeStyle=orthogonalEdgeStyle;rounded=0;orthogonalLoop=1;jettySize=auto;html=1;entryX=0.5;entryY=0;entryDx=0;entryDy=0;" parent="WIyWlLk6GJQsqaUBKTNV-1" source="Iu9OsLd2DkIirDojUxNY-217" target="Iu9OsLd2DkIirDojUxNY-232" edge="1">
          <mxGeometry relative="1" as="geometry">
            <Array as="points">
              <mxPoint x="-1220" y="720" />
            </Array>
          </mxGeometry>
        </mxCell>
        <mxCell id="Iu9OsLd2DkIirDojUxNY-217" value="6" style="ellipse;whiteSpace=wrap;html=1;aspect=fixed;fillColor=#FF7B08;" parent="WIyWlLk6GJQsqaUBKTNV-1" vertex="1">
          <mxGeometry x="-1200" y="700" width="40" height="40" as="geometry" />
        </mxCell>
        <mxCell id="Iu9OsLd2DkIirDojUxNY-227" style="edgeStyle=orthogonalEdgeStyle;rounded=0;orthogonalLoop=1;jettySize=auto;html=1;entryX=0.5;entryY=0;entryDx=0;entryDy=0;" parent="WIyWlLk6GJQsqaUBKTNV-1" source="Iu9OsLd2DkIirDojUxNY-218" target="Iu9OsLd2DkIirDojUxNY-226" edge="1">
          <mxGeometry relative="1" as="geometry" />
        </mxCell>
        <mxCell id="Iu9OsLd2DkIirDojUxNY-230" style="edgeStyle=orthogonalEdgeStyle;rounded=0;orthogonalLoop=1;jettySize=auto;html=1;entryX=0.5;entryY=0;entryDx=0;entryDy=0;" parent="WIyWlLk6GJQsqaUBKTNV-1" source="Iu9OsLd2DkIirDojUxNY-218" target="Iu9OsLd2DkIirDojUxNY-228" edge="1">
          <mxGeometry relative="1" as="geometry">
            <Array as="points">
              <mxPoint x="-1130" y="750" />
              <mxPoint x="-1130" y="879" />
              <mxPoint x="-1180" y="879" />
            </Array>
          </mxGeometry>
        </mxCell>
        <mxCell id="Iu9OsLd2DkIirDojUxNY-218" value="7" style="ellipse;whiteSpace=wrap;html=1;aspect=fixed;fillColor=#FF7B08;" parent="WIyWlLk6GJQsqaUBKTNV-1" vertex="1">
          <mxGeometry x="-1110" y="730" width="40" height="40" as="geometry" />
        </mxCell>
        <mxCell id="Iu9OsLd2DkIirDojUxNY-235" style="edgeStyle=orthogonalEdgeStyle;rounded=0;orthogonalLoop=1;jettySize=auto;html=1;entryX=0.5;entryY=0;entryDx=0;entryDy=0;" parent="WIyWlLk6GJQsqaUBKTNV-1" source="Iu9OsLd2DkIirDojUxNY-226" target="Iu9OsLd2DkIirDojUxNY-228" edge="1">
          <mxGeometry relative="1" as="geometry">
            <Array as="points">
              <mxPoint x="-1040" y="850" />
              <mxPoint x="-1130" y="850" />
              <mxPoint x="-1130" y="880" />
              <mxPoint x="-1180" y="880" />
            </Array>
          </mxGeometry>
        </mxCell>
        <mxCell id="Iu9OsLd2DkIirDojUxNY-226" value="8" style="ellipse;whiteSpace=wrap;html=1;aspect=fixed;" parent="WIyWlLk6GJQsqaUBKTNV-1" vertex="1">
          <mxGeometry x="-1060" y="781" width="40" height="40" as="geometry" />
        </mxCell>
        <mxCell id="Iu9OsLd2DkIirDojUxNY-236" style="edgeStyle=orthogonalEdgeStyle;rounded=0;orthogonalLoop=1;jettySize=auto;html=1;entryX=0.5;entryY=0;entryDx=0;entryDy=0;" parent="WIyWlLk6GJQsqaUBKTNV-1" source="Iu9OsLd2DkIirDojUxNY-228" target="Iu9OsLd2DkIirDojUxNY-217" edge="1">
          <mxGeometry relative="1" as="geometry">
            <Array as="points">
              <mxPoint x="-990" y="920" />
              <mxPoint x="-990" y="700" />
            </Array>
          </mxGeometry>
        </mxCell>
        <mxCell id="Iu9OsLd2DkIirDojUxNY-228" value="9" style="ellipse;whiteSpace=wrap;html=1;aspect=fixed;" parent="WIyWlLk6GJQsqaUBKTNV-1" vertex="1">
          <mxGeometry x="-1200" y="900" width="40" height="40" as="geometry" />
        </mxCell>
        <mxCell id="Iu9OsLd2DkIirDojUxNY-237" style="edgeStyle=orthogonalEdgeStyle;rounded=0;orthogonalLoop=1;jettySize=auto;html=1;entryX=0.5;entryY=0;entryDx=0;entryDy=0;" parent="WIyWlLk6GJQsqaUBKTNV-1" source="Iu9OsLd2DkIirDojUxNY-232" target="Iu9OsLd2DkIirDojUxNY-215" edge="1">
          <mxGeometry relative="1" as="geometry">
            <Array as="points">
              <mxPoint x="-940" y="980" />
              <mxPoint x="-940" y="580" />
            </Array>
          </mxGeometry>
        </mxCell>
        <mxCell id="Iu9OsLd2DkIirDojUxNY-232" value="10" style="ellipse;whiteSpace=wrap;html=1;aspect=fixed;" parent="WIyWlLk6GJQsqaUBKTNV-1" vertex="1">
          <mxGeometry x="-1240" y="960" width="40" height="40" as="geometry" />
        </mxCell>
        <mxCell id="Iu9OsLd2DkIirDojUxNY-255" style="edgeStyle=orthogonalEdgeStyle;rounded=0;orthogonalLoop=1;jettySize=auto;html=1;exitX=0.5;exitY=1;exitDx=0;exitDy=0;entryX=0.5;entryY=0;entryDx=0;entryDy=0;" parent="WIyWlLk6GJQsqaUBKTNV-1" source="Iu9OsLd2DkIirDojUxNY-238" target="Iu9OsLd2DkIirDojUxNY-240" edge="1">
          <mxGeometry relative="1" as="geometry" />
        </mxCell>
        <mxCell id="Iu9OsLd2DkIirDojUxNY-238" value="11" style="ellipse;whiteSpace=wrap;html=1;aspect=fixed;" parent="WIyWlLk6GJQsqaUBKTNV-1" vertex="1">
          <mxGeometry x="-1240" y="1020" width="40" height="40" as="geometry" />
        </mxCell>
        <mxCell id="Iu9OsLd2DkIirDojUxNY-244" style="edgeStyle=orthogonalEdgeStyle;rounded=0;orthogonalLoop=1;jettySize=auto;html=1;entryX=0.5;entryY=0;entryDx=0;entryDy=0;" parent="WIyWlLk6GJQsqaUBKTNV-1" source="Iu9OsLd2DkIirDojUxNY-240" target="Iu9OsLd2DkIirDojUxNY-241" edge="1">
          <mxGeometry relative="1" as="geometry" />
        </mxCell>
        <mxCell id="Iu9OsLd2DkIirDojUxNY-250" style="edgeStyle=orthogonalEdgeStyle;rounded=0;orthogonalLoop=1;jettySize=auto;html=1;entryX=0.5;entryY=0;entryDx=0;entryDy=0;" parent="WIyWlLk6GJQsqaUBKTNV-1" source="Iu9OsLd2DkIirDojUxNY-240" target="Iu9OsLd2DkIirDojUxNY-249" edge="1">
          <mxGeometry relative="1" as="geometry">
            <Array as="points">
              <mxPoint x="-1270" y="1100" />
              <mxPoint x="-1270" y="1320" />
              <mxPoint x="-1220" y="1320" />
            </Array>
          </mxGeometry>
        </mxCell>
        <mxCell id="Iu9OsLd2DkIirDojUxNY-240" value="12" style="ellipse;whiteSpace=wrap;html=1;aspect=fixed;fillColor=#FF7B08;" parent="WIyWlLk6GJQsqaUBKTNV-1" vertex="1">
          <mxGeometry x="-1240" y="1080" width="40" height="40" as="geometry" />
        </mxCell>
        <mxCell id="Iu9OsLd2DkIirDojUxNY-245" style="edgeStyle=orthogonalEdgeStyle;rounded=0;orthogonalLoop=1;jettySize=auto;html=1;entryX=0.5;entryY=0;entryDx=0;entryDy=0;" parent="WIyWlLk6GJQsqaUBKTNV-1" source="Iu9OsLd2DkIirDojUxNY-241" target="Iu9OsLd2DkIirDojUxNY-242" edge="1">
          <mxGeometry relative="1" as="geometry" />
        </mxCell>
        <mxCell id="Iu9OsLd2DkIirDojUxNY-251" style="edgeStyle=orthogonalEdgeStyle;rounded=0;orthogonalLoop=1;jettySize=auto;html=1;entryX=0.5;entryY=0;entryDx=0;entryDy=0;" parent="WIyWlLk6GJQsqaUBKTNV-1" source="Iu9OsLd2DkIirDojUxNY-241" target="Iu9OsLd2DkIirDojUxNY-249" edge="1">
          <mxGeometry relative="1" as="geometry">
            <Array as="points">
              <mxPoint x="-1210" y="1140" />
              <mxPoint x="-1210" y="1330" />
              <mxPoint x="-1220" y="1330" />
            </Array>
          </mxGeometry>
        </mxCell>
        <mxCell id="Iu9OsLd2DkIirDojUxNY-241" value="13" style="ellipse;whiteSpace=wrap;html=1;aspect=fixed;fillColor=#FF7B08;" parent="WIyWlLk6GJQsqaUBKTNV-1" vertex="1">
          <mxGeometry x="-1190" y="1120" width="40" height="40" as="geometry" />
        </mxCell>
        <mxCell id="Iu9OsLd2DkIirDojUxNY-246" style="edgeStyle=orthogonalEdgeStyle;rounded=0;orthogonalLoop=1;jettySize=auto;html=1;entryX=0.5;entryY=0;entryDx=0;entryDy=0;" parent="WIyWlLk6GJQsqaUBKTNV-1" source="Iu9OsLd2DkIirDojUxNY-242" target="Iu9OsLd2DkIirDojUxNY-243" edge="1">
          <mxGeometry relative="1" as="geometry" />
        </mxCell>
        <mxCell id="Iu9OsLd2DkIirDojUxNY-252" style="edgeStyle=orthogonalEdgeStyle;rounded=0;orthogonalLoop=1;jettySize=auto;html=1;entryX=0.5;entryY=0;entryDx=0;entryDy=0;" parent="WIyWlLk6GJQsqaUBKTNV-1" source="Iu9OsLd2DkIirDojUxNY-242" target="Iu9OsLd2DkIirDojUxNY-249" edge="1">
          <mxGeometry relative="1" as="geometry">
            <Array as="points">
              <mxPoint x="-1160" y="1180" />
              <mxPoint x="-1160" y="1330" />
              <mxPoint x="-1220" y="1330" />
            </Array>
          </mxGeometry>
        </mxCell>
        <mxCell id="Iu9OsLd2DkIirDojUxNY-242" value="14" style="ellipse;whiteSpace=wrap;html=1;aspect=fixed;fillColor=#FF7B08;" parent="WIyWlLk6GJQsqaUBKTNV-1" vertex="1">
          <mxGeometry x="-1140" y="1160" width="40" height="40" as="geometry" />
        </mxCell>
        <mxCell id="Iu9OsLd2DkIirDojUxNY-247" style="edgeStyle=orthogonalEdgeStyle;rounded=0;orthogonalLoop=1;jettySize=auto;html=1;" parent="WIyWlLk6GJQsqaUBKTNV-1" source="Iu9OsLd2DkIirDojUxNY-243" target="Iu9OsLd2DkIirDojUxNY-248" edge="1">
          <mxGeometry relative="1" as="geometry">
            <mxPoint x="-1000" y="1250.0000000000002" as="targetPoint" />
          </mxGeometry>
        </mxCell>
        <mxCell id="Iu9OsLd2DkIirDojUxNY-253" style="edgeStyle=orthogonalEdgeStyle;rounded=0;orthogonalLoop=1;jettySize=auto;html=1;entryX=0.5;entryY=0;entryDx=0;entryDy=0;" parent="WIyWlLk6GJQsqaUBKTNV-1" source="Iu9OsLd2DkIirDojUxNY-243" target="Iu9OsLd2DkIirDojUxNY-249" edge="1">
          <mxGeometry relative="1" as="geometry">
            <Array as="points">
              <mxPoint x="-1100" y="1220" />
              <mxPoint x="-1100" y="1330" />
              <mxPoint x="-1220" y="1330" />
            </Array>
          </mxGeometry>
        </mxCell>
        <mxCell id="Iu9OsLd2DkIirDojUxNY-243" value="15" style="ellipse;whiteSpace=wrap;html=1;aspect=fixed;fillColor=#FF7B08;" parent="WIyWlLk6GJQsqaUBKTNV-1" vertex="1">
          <mxGeometry x="-1080" y="1200" width="40" height="40" as="geometry" />
        </mxCell>
        <mxCell id="Iu9OsLd2DkIirDojUxNY-254" style="edgeStyle=orthogonalEdgeStyle;rounded=0;orthogonalLoop=1;jettySize=auto;html=1;entryX=0.5;entryY=0;entryDx=0;entryDy=0;" parent="WIyWlLk6GJQsqaUBKTNV-1" source="Iu9OsLd2DkIirDojUxNY-248" target="Iu9OsLd2DkIirDojUxNY-249" edge="1">
          <mxGeometry relative="1" as="geometry">
            <Array as="points">
              <mxPoint x="-1000" y="1330" />
              <mxPoint x="-1220" y="1330" />
            </Array>
          </mxGeometry>
        </mxCell>
        <mxCell id="Iu9OsLd2DkIirDojUxNY-248" value="16" style="ellipse;whiteSpace=wrap;html=1;aspect=fixed;" parent="WIyWlLk6GJQsqaUBKTNV-1" vertex="1">
          <mxGeometry x="-1020" y="1250" width="40" height="40" as="geometry" />
        </mxCell>
        <mxCell id="Iu9OsLd2DkIirDojUxNY-317" style="edgeStyle=orthogonalEdgeStyle;rounded=0;orthogonalLoop=1;jettySize=auto;html=1;entryX=0.5;entryY=0;entryDx=0;entryDy=0;" parent="WIyWlLk6GJQsqaUBKTNV-1" source="Iu9OsLd2DkIirDojUxNY-249" target="Iu9OsLd2DkIirDojUxNY-256" edge="1">
          <mxGeometry relative="1" as="geometry" />
        </mxCell>
        <mxCell id="Iu9OsLd2DkIirDojUxNY-249" value="17" style="ellipse;whiteSpace=wrap;html=1;aspect=fixed;" parent="WIyWlLk6GJQsqaUBKTNV-1" vertex="1">
          <mxGeometry x="-1240" y="1359" width="40" height="40" as="geometry" />
        </mxCell>
        <mxCell id="Iu9OsLd2DkIirDojUxNY-264" style="edgeStyle=orthogonalEdgeStyle;rounded=0;orthogonalLoop=1;jettySize=auto;html=1;entryX=0.5;entryY=0;entryDx=0;entryDy=0;" parent="WIyWlLk6GJQsqaUBKTNV-1" source="Iu9OsLd2DkIirDojUxNY-256" target="Iu9OsLd2DkIirDojUxNY-260" edge="1">
          <mxGeometry relative="1" as="geometry" />
        </mxCell>
        <mxCell id="Iu9OsLd2DkIirDojUxNY-265" style="edgeStyle=orthogonalEdgeStyle;rounded=0;orthogonalLoop=1;jettySize=auto;html=1;entryX=0.5;entryY=0;entryDx=0;entryDy=0;" parent="WIyWlLk6GJQsqaUBKTNV-1" source="Iu9OsLd2DkIirDojUxNY-256" target="Iu9OsLd2DkIirDojUxNY-259" edge="1">
          <mxGeometry relative="1" as="geometry" />
        </mxCell>
        <mxCell id="Iu9OsLd2DkIirDojUxNY-256" value="18" style="ellipse;whiteSpace=wrap;html=1;aspect=fixed;fillColor=#FF7B08;" parent="WIyWlLk6GJQsqaUBKTNV-1" vertex="1">
          <mxGeometry x="-1247" y="1430" width="40" height="40" as="geometry" />
        </mxCell>
        <mxCell id="Iu9OsLd2DkIirDojUxNY-279" style="edgeStyle=orthogonalEdgeStyle;rounded=0;orthogonalLoop=1;jettySize=auto;html=1;entryX=0.5;entryY=0;entryDx=0;entryDy=0;" parent="WIyWlLk6GJQsqaUBKTNV-1" source="Iu9OsLd2DkIirDojUxNY-258" target="Iu9OsLd2DkIirDojUxNY-270" edge="1">
          <mxGeometry relative="1" as="geometry" />
        </mxCell>
        <mxCell id="Iu9OsLd2DkIirDojUxNY-258" value="23" style="ellipse;whiteSpace=wrap;html=1;aspect=fixed;" parent="WIyWlLk6GJQsqaUBKTNV-1" vertex="1">
          <mxGeometry x="-1377" y="1520" width="40" height="40" as="geometry" />
        </mxCell>
        <mxCell id="Iu9OsLd2DkIirDojUxNY-268" style="edgeStyle=orthogonalEdgeStyle;rounded=0;orthogonalLoop=1;jettySize=auto;html=1;entryX=0.5;entryY=0;entryDx=0;entryDy=0;" parent="WIyWlLk6GJQsqaUBKTNV-1" source="Iu9OsLd2DkIirDojUxNY-259" target="Iu9OsLd2DkIirDojUxNY-262" edge="1">
          <mxGeometry relative="1" as="geometry" />
        </mxCell>
        <mxCell id="Iu9OsLd2DkIirDojUxNY-269" style="edgeStyle=orthogonalEdgeStyle;rounded=0;orthogonalLoop=1;jettySize=auto;html=1;entryX=0.5;entryY=0;entryDx=0;entryDy=0;" parent="WIyWlLk6GJQsqaUBKTNV-1" source="Iu9OsLd2DkIirDojUxNY-259" target="Iu9OsLd2DkIirDojUxNY-263" edge="1">
          <mxGeometry relative="1" as="geometry" />
        </mxCell>
        <mxCell id="Iu9OsLd2DkIirDojUxNY-259" value="19" style="ellipse;whiteSpace=wrap;html=1;aspect=fixed;fillColor=#FF7B08;" parent="WIyWlLk6GJQsqaUBKTNV-1" vertex="1">
          <mxGeometry x="-1167" y="1470" width="40" height="40" as="geometry" />
        </mxCell>
        <mxCell id="Iu9OsLd2DkIirDojUxNY-266" style="edgeStyle=orthogonalEdgeStyle;rounded=0;orthogonalLoop=1;jettySize=auto;html=1;entryX=0.5;entryY=0;entryDx=0;entryDy=0;" parent="WIyWlLk6GJQsqaUBKTNV-1" source="Iu9OsLd2DkIirDojUxNY-260" target="Iu9OsLd2DkIirDojUxNY-258" edge="1">
          <mxGeometry relative="1" as="geometry" />
        </mxCell>
        <mxCell id="Iu9OsLd2DkIirDojUxNY-267" style="edgeStyle=orthogonalEdgeStyle;rounded=0;orthogonalLoop=1;jettySize=auto;html=1;entryX=0.5;entryY=0;entryDx=0;entryDy=0;" parent="WIyWlLk6GJQsqaUBKTNV-1" source="Iu9OsLd2DkIirDojUxNY-260" target="Iu9OsLd2DkIirDojUxNY-261" edge="1">
          <mxGeometry relative="1" as="geometry">
            <Array as="points">
              <mxPoint x="-1267" y="1490" />
            </Array>
          </mxGeometry>
        </mxCell>
        <mxCell id="Iu9OsLd2DkIirDojUxNY-260" value="22" style="ellipse;whiteSpace=wrap;html=1;aspect=fixed;fillColor=#FF7B08;" parent="WIyWlLk6GJQsqaUBKTNV-1" vertex="1">
          <mxGeometry x="-1327" y="1470" width="40" height="40" as="geometry" />
        </mxCell>
        <mxCell id="Iu9OsLd2DkIirDojUxNY-283" style="edgeStyle=orthogonalEdgeStyle;rounded=0;orthogonalLoop=1;jettySize=auto;html=1;entryX=0.5;entryY=0;entryDx=0;entryDy=0;" parent="WIyWlLk6GJQsqaUBKTNV-1" source="Iu9OsLd2DkIirDojUxNY-261" target="Iu9OsLd2DkIirDojUxNY-277" edge="1">
          <mxGeometry relative="1" as="geometry">
            <Array as="points">
              <mxPoint x="-1267" y="1740" />
              <mxPoint x="-1227" y="1740" />
            </Array>
          </mxGeometry>
        </mxCell>
        <mxCell id="Iu9OsLd2DkIirDojUxNY-261" value="24" style="ellipse;whiteSpace=wrap;html=1;aspect=fixed;" parent="WIyWlLk6GJQsqaUBKTNV-1" vertex="1">
          <mxGeometry x="-1287" y="1520" width="40" height="40" as="geometry" />
        </mxCell>
        <mxCell id="Iu9OsLd2DkIirDojUxNY-284" style="edgeStyle=orthogonalEdgeStyle;rounded=0;orthogonalLoop=1;jettySize=auto;html=1;entryX=0.5;entryY=0;entryDx=0;entryDy=0;" parent="WIyWlLk6GJQsqaUBKTNV-1" source="Iu9OsLd2DkIirDojUxNY-262" target="Iu9OsLd2DkIirDojUxNY-277" edge="1">
          <mxGeometry relative="1" as="geometry">
            <Array as="points">
              <mxPoint x="-1197" y="1740" />
              <mxPoint x="-1227" y="1740" />
            </Array>
          </mxGeometry>
        </mxCell>
        <mxCell id="Iu9OsLd2DkIirDojUxNY-262" value="20" style="ellipse;whiteSpace=wrap;html=1;aspect=fixed;" parent="WIyWlLk6GJQsqaUBKTNV-1" vertex="1">
          <mxGeometry x="-1217" y="1520" width="40" height="40" as="geometry" />
        </mxCell>
        <mxCell id="Iu9OsLd2DkIirDojUxNY-285" style="edgeStyle=orthogonalEdgeStyle;rounded=0;orthogonalLoop=1;jettySize=auto;html=1;entryX=0.5;entryY=0;entryDx=0;entryDy=0;" parent="WIyWlLk6GJQsqaUBKTNV-1" source="Iu9OsLd2DkIirDojUxNY-263" target="Iu9OsLd2DkIirDojUxNY-277" edge="1">
          <mxGeometry relative="1" as="geometry">
            <Array as="points">
              <mxPoint x="-1097" y="1740" />
              <mxPoint x="-1227" y="1740" />
            </Array>
          </mxGeometry>
        </mxCell>
        <mxCell id="Iu9OsLd2DkIirDojUxNY-263" value="21" style="ellipse;whiteSpace=wrap;html=1;aspect=fixed;" parent="WIyWlLk6GJQsqaUBKTNV-1" vertex="1">
          <mxGeometry x="-1117" y="1520" width="40" height="40" as="geometry" />
        </mxCell>
        <mxCell id="Iu9OsLd2DkIirDojUxNY-274" style="edgeStyle=orthogonalEdgeStyle;rounded=0;orthogonalLoop=1;jettySize=auto;html=1;entryX=0;entryY=0.5;entryDx=0;entryDy=0;" parent="WIyWlLk6GJQsqaUBKTNV-1" source="Iu9OsLd2DkIirDojUxNY-270" target="Iu9OsLd2DkIirDojUxNY-272" edge="1">
          <mxGeometry relative="1" as="geometry">
            <Array as="points">
              <mxPoint x="-1417" y="1610" />
              <mxPoint x="-1417" y="1740" />
            </Array>
          </mxGeometry>
        </mxCell>
        <mxCell id="Iu9OsLd2DkIirDojUxNY-275" style="edgeStyle=orthogonalEdgeStyle;rounded=0;orthogonalLoop=1;jettySize=auto;html=1;exitX=0.5;exitY=1;exitDx=0;exitDy=0;entryX=0.5;entryY=0;entryDx=0;entryDy=0;" parent="WIyWlLk6GJQsqaUBKTNV-1" source="Iu9OsLd2DkIirDojUxNY-270" target="Iu9OsLd2DkIirDojUxNY-271" edge="1">
          <mxGeometry relative="1" as="geometry">
            <mxPoint x="-1356.5" y="1640" as="targetPoint" />
          </mxGeometry>
        </mxCell>
        <mxCell id="Iu9OsLd2DkIirDojUxNY-270" value="25" style="ellipse;whiteSpace=wrap;html=1;aspect=fixed;fillColor=#FF7B08;" parent="WIyWlLk6GJQsqaUBKTNV-1" vertex="1">
          <mxGeometry x="-1377" y="1590" width="40" height="40" as="geometry" />
        </mxCell>
        <mxCell id="Iu9OsLd2DkIirDojUxNY-276" style="edgeStyle=orthogonalEdgeStyle;rounded=0;orthogonalLoop=1;jettySize=auto;html=1;entryX=0.5;entryY=0;entryDx=0;entryDy=0;" parent="WIyWlLk6GJQsqaUBKTNV-1" source="Iu9OsLd2DkIirDojUxNY-271" target="Iu9OsLd2DkIirDojUxNY-272" edge="1">
          <mxGeometry relative="1" as="geometry" />
        </mxCell>
        <mxCell id="Iu9OsLd2DkIirDojUxNY-271" value="26" style="ellipse;whiteSpace=wrap;html=1;aspect=fixed;" parent="WIyWlLk6GJQsqaUBKTNV-1" vertex="1">
          <mxGeometry x="-1377" y="1650" width="40" height="40" as="geometry" />
        </mxCell>
        <mxCell id="Iu9OsLd2DkIirDojUxNY-280" style="edgeStyle=orthogonalEdgeStyle;rounded=0;orthogonalLoop=1;jettySize=auto;html=1;exitX=0.5;exitY=1;exitDx=0;exitDy=0;entryX=0.5;entryY=0;entryDx=0;entryDy=0;" parent="WIyWlLk6GJQsqaUBKTNV-1" source="Iu9OsLd2DkIirDojUxNY-272" target="Iu9OsLd2DkIirDojUxNY-273" edge="1">
          <mxGeometry relative="1" as="geometry" />
        </mxCell>
        <mxCell id="Iu9OsLd2DkIirDojUxNY-281" style="edgeStyle=orthogonalEdgeStyle;rounded=0;orthogonalLoop=1;jettySize=auto;html=1;entryX=0.5;entryY=0;entryDx=0;entryDy=0;" parent="WIyWlLk6GJQsqaUBKTNV-1" source="Iu9OsLd2DkIirDojUxNY-272" target="Iu9OsLd2DkIirDojUxNY-277" edge="1">
          <mxGeometry relative="1" as="geometry">
            <mxPoint x="-1297" y="1750" as="targetPoint" />
            <Array as="points">
              <mxPoint x="-1227" y="1740" />
            </Array>
          </mxGeometry>
        </mxCell>
        <mxCell id="Iu9OsLd2DkIirDojUxNY-272" value="27" style="ellipse;whiteSpace=wrap;html=1;aspect=fixed;fillColor=#FF7B08;" parent="WIyWlLk6GJQsqaUBKTNV-1" vertex="1">
          <mxGeometry x="-1377" y="1720" width="40" height="40" as="geometry" />
        </mxCell>
        <mxCell id="Iu9OsLd2DkIirDojUxNY-282" style="edgeStyle=orthogonalEdgeStyle;rounded=0;orthogonalLoop=1;jettySize=auto;html=1;entryX=0.5;entryY=0;entryDx=0;entryDy=0;" parent="WIyWlLk6GJQsqaUBKTNV-1" source="Iu9OsLd2DkIirDojUxNY-273" target="Iu9OsLd2DkIirDojUxNY-277" edge="1">
          <mxGeometry relative="1" as="geometry" />
        </mxCell>
        <mxCell id="Iu9OsLd2DkIirDojUxNY-273" value="28" style="ellipse;whiteSpace=wrap;html=1;aspect=fixed;" parent="WIyWlLk6GJQsqaUBKTNV-1" vertex="1">
          <mxGeometry x="-1377" y="1780" width="40" height="40" as="geometry" />
        </mxCell>
        <mxCell id="Iu9OsLd2DkIirDojUxNY-286" style="edgeStyle=orthogonalEdgeStyle;rounded=0;orthogonalLoop=1;jettySize=auto;html=1;entryX=0.5;entryY=0;entryDx=0;entryDy=0;" parent="WIyWlLk6GJQsqaUBKTNV-1" source="Iu9OsLd2DkIirDojUxNY-277" target="Iu9OsLd2DkIirDojUxNY-278" edge="1">
          <mxGeometry relative="1" as="geometry" />
        </mxCell>
        <mxCell id="Iu9OsLd2DkIirDojUxNY-277" value="29" style="ellipse;whiteSpace=wrap;html=1;aspect=fixed;" parent="WIyWlLk6GJQsqaUBKTNV-1" vertex="1">
          <mxGeometry x="-1247" y="1840" width="40" height="40" as="geometry" />
        </mxCell>
        <mxCell id="Iu9OsLd2DkIirDojUxNY-278" value="30" style="ellipse;whiteSpace=wrap;html=1;aspect=fixed;" parent="WIyWlLk6GJQsqaUBKTNV-1" vertex="1">
          <mxGeometry x="-1247" y="1910" width="40" height="40" as="geometry" />
        </mxCell>
      </root>
    </mxGraphModel>
  </diagram>
</mxfile>
